<svg width="36" height="37" viewBox="0 0 36 37" fill="none" xmlns="http://www.w3.org/2000/svg">
<path d="M27.2216 9.78412L22.6825 5.24506C22.1903 4.75287 21.4794 4.42474 20.8232 4.42474H9.66691C8.19035 4.47943 7.04191 5.62787 7.04191 7.10443V13.5029C6.71379 13.5029 6.38566 13.4482 5.67473 13.2294C5.62004 13.2294 5.51066 13.2294 5.40129 13.2294C5.12785 13.2294 4.85441 13.3388 4.69035 13.5029C3.70598 14.5419 3.76066 14.4872 2.39348 14.8701C2.01066 14.9794 1.73723 15.2529 1.62785 15.6357C1.29973 17.0029 1.29973 16.9482 0.31535 17.9326C0.0419129 18.206 -0.0674621 18.6435 0.0419129 19.0263C0.424725 20.3388 0.424725 20.3388 0.0419129 21.6513C-0.0674621 22.0341 0.0419129 22.4716 0.31535 22.7451C1.29973 23.7294 1.29973 23.7294 1.62785 25.0419C1.73723 25.4247 2.01066 25.6982 2.39348 25.8076C2.50285 25.8622 2.55754 25.8622 2.66691 25.8622V31.5497C2.66691 31.8779 2.77629 32.1513 3.04973 32.3154C3.32316 32.4794 3.65129 32.4794 3.92473 32.3701L7.04191 30.7841L10.1044 32.3701C10.2685 32.4247 10.3779 32.4247 10.5419 32.4247H25.4169C26.8388 32.4247 28.0419 31.2763 28.0419 29.8544V11.6435C28.0419 10.9872 27.7138 10.2763 27.2216 9.78412ZM21.0419 6.22943C21.1513 6.28412 21.3153 6.33881 21.4247 6.44818L26.0185 11.0419C26.1278 11.1513 26.1825 11.3154 26.2372 11.4794H21.0419V6.22943ZM1.8466 21.7607C2.12004 20.5576 2.12004 20.1201 1.8466 18.9169C2.66691 18.0419 2.88566 17.6591 3.21379 16.456C4.41691 16.1279 4.74504 15.9091 5.62004 15.0341C6.16691 15.1982 6.54973 15.2529 7.04191 15.2529C7.47941 15.2529 7.86223 15.1982 8.4091 15.0341C9.22941 15.9091 9.61223 16.1279 10.8154 16.456C11.1435 17.6591 11.3075 17.9872 12.1825 18.9169C11.8544 20.1201 11.8544 20.5576 12.1825 21.7607C11.3622 22.6357 11.1435 23.0185 10.8154 24.2216C9.99504 24.4404 9.50285 24.6044 8.73723 25.2607C8.19035 25.0419 7.64348 24.9326 7.04191 24.9326C6.38566 24.9326 5.83879 25.0419 5.29191 25.3154C4.52629 24.6591 4.0341 24.4404 3.21379 24.2216C2.88566 23.0185 2.7216 22.6904 1.8466 21.7607ZM7.42473 29.0341C7.15129 28.9247 6.87785 28.9247 6.60441 29.0341L4.41691 30.1826V26.8466C4.41691 26.9013 4.41691 26.9013 4.41691 26.9013C4.63566 27.1201 4.9091 27.1747 5.12785 27.1747C5.3466 27.1747 5.51066 27.1201 5.72941 27.0654C6.11223 26.7919 6.54973 26.6826 7.04191 26.6826C7.47941 26.6826 7.91691 26.7919 8.29973 27.0107C8.51848 27.1747 8.68254 27.1747 8.90129 27.1747C9.17473 27.1747 9.39348 27.1201 9.61223 26.9013C9.61223 26.9013 9.61223 26.9013 9.66691 26.8466V30.1826L7.42473 29.0341ZM26.2919 29.8544C26.2919 30.2919 25.8544 30.7294 25.4169 30.7294H11.4169V25.8622C11.4716 25.8622 11.5263 25.8622 11.6357 25.8076C12.0185 25.6982 12.2919 25.4247 12.4013 25.0419C12.7294 23.6747 12.7294 23.7294 13.7138 22.7451C13.9872 22.4716 14.0966 22.0341 13.9872 21.6513C13.6044 20.3388 13.6044 20.3388 13.9872 19.0263C14.0966 18.6435 13.9872 18.206 13.7138 17.9326C12.7294 16.9482 12.7294 16.9482 12.4013 15.6357C12.2919 15.2529 12.0185 14.9794 11.6357 14.8701C10.3232 14.4872 10.3232 14.5419 9.33879 13.5029C9.17473 13.3388 8.95598 13.2841 8.79191 13.2294V7.10443C8.79191 6.61224 9.17473 6.17474 9.66691 6.17474H19.2919V11.9169C19.2919 12.6279 19.8388 13.1747 20.6044 13.1747H26.2919V29.8544Z" fill="#5C8EE6"/>
</svg>
