<svg width="36" height="37" viewBox="0 0 36 37" fill="none" xmlns="http://www.w3.org/2000/svg">
<path d="M17.1172 23.6747C15.5312 23.6747 14.8203 24.5497 12.25 24.5497C9.625 24.5497 8.91406 23.6747 7.32812 23.6747C3.28125 23.6747 0 27.0107 0 31.0576C0 31.8232 0.601562 32.4247 1.36719 32.4247H23.0781C23.8438 32.4247 24.5 31.8232 24.5 31.0576C24.5 27.0107 21.1641 23.6747 17.1172 23.6747ZM1.75 30.6747C1.91406 27.7763 4.375 25.4794 7.32812 25.4247C8.42188 25.4247 9.46094 26.2997 12.25 26.2997C15.0391 26.2997 16.0234 25.4247 17.1172 25.4247C20.0703 25.4794 22.5312 27.7763 22.6953 30.6747H1.75ZM4.8125 13.1747H5.46875C5.30469 13.7763 5.25 14.3232 5.25 14.9247C5.25 18.8076 8.36719 21.9247 12.25 21.9247C16.0781 21.9247 19.25 18.8076 19.25 14.9247C19.1953 14.3232 19.1406 13.7763 18.9766 13.1747H19.6875C19.9062 13.1747 20.125 13.0107 20.125 12.7372V11.8622C20.125 11.6435 19.9062 11.4247 19.6875 11.4247H19.25C19.25 8.63568 17.3359 6.28412 14.7109 5.57318C14.4922 4.91693 13.8359 4.47943 13.125 4.42474H11.375C10.6094 4.47943 9.95312 4.91693 9.73438 5.57318C7.16406 6.28412 5.25 8.63568 5.25 11.4247H4.8125C4.53906 11.4247 4.375 11.6435 4.375 11.8622V12.7372C4.375 13.0107 4.53906 13.1747 4.8125 13.1747ZM14.875 7.43256C16.4062 8.14349 17.4453 9.67474 17.5 11.4247H14.875V7.43256ZM11.375 6.17474H13.125V11.4247H11.375V6.17474ZM7 11.4247C7 9.67474 8.03906 8.14349 9.625 7.43256V11.4247H7ZM7.32812 13.1747H17.1719C17.3359 13.7216 17.4453 14.3232 17.5 14.9247C17.5 17.8232 15.0938 20.1747 12.25 20.1747C9.35156 20.1747 7 17.8232 7 14.9247C7 14.3232 7.10938 13.7216 7.32812 13.1747Z" fill="#5C8EE6"/>
</svg>
