<svg width="36" height="37" viewBox="0 0 36 37" fill="none" xmlns="http://www.w3.org/2000/svg">
<path d="M1.75 21.9247H20.125C21.0547 21.9247 21.875 21.1591 21.875 20.1747V7.92474C21.875 6.99506 21.0547 6.17474 20.125 6.17474H1.75C0.765625 6.17474 0 6.99506 0 7.92474V20.1747C0 21.1591 0.765625 21.9247 1.75 21.9247ZM1.75 7.92474H20.125V20.1747H1.75V7.92474ZM33.9609 15.6904L30.7344 12.4638C30.0781 11.8076 29.2031 11.4794 28.2734 11.4794H24.5C24.0078 11.4794 23.625 11.8622 23.625 12.3544V23.7294H12.4688C11.8125 23.1826 10.9922 22.8544 10.0625 22.8544C8.80469 22.8544 7.71094 23.4013 7 24.331C6.23438 23.4013 5.14062 22.7997 3.9375 22.7997C1.75 22.7997 0 24.6044 0 26.7372C0 28.9247 1.75 30.6747 3.9375 30.6747C5.14062 30.6747 6.23438 30.1279 7 29.1982C7.71094 30.1279 8.80469 30.6747 10.0625 30.6747C12.1953 30.6747 14 28.9247 14 26.7372C14 26.2997 13.8906 25.8622 13.7266 25.4247H24.5547C24.3906 26.1904 24.4453 26.956 24.7188 27.7763C25.1562 29.1435 26.3594 30.2372 27.7812 30.5654C30.625 31.2763 33.25 29.0888 33.25 26.2997C33.25 26.0263 33.1953 25.7529 33.1406 25.4247H34.125C34.5625 25.4247 35 25.0419 35 24.5497V18.1513C35 17.2216 34.6172 16.3466 33.9609 15.6904ZM3.9375 28.9247C2.67969 28.9247 1.75 27.9951 1.75 26.7372C1.75 25.5341 2.67969 24.5497 3.9375 24.5497C5.14062 24.5497 6.125 25.5341 6.125 26.7372C6.125 27.9951 5.14062 28.9247 3.9375 28.9247ZM10.0625 28.9247C8.80469 28.9247 7.875 27.9951 7.875 26.7372C7.875 25.5341 8.80469 24.5497 10.0625 24.5497C11.2656 24.5497 12.25 25.5341 12.25 26.7372C12.25 27.9951 11.2656 28.9247 10.0625 28.9247ZM25.375 13.1747H28.2734C28.7656 13.1747 29.2031 13.3935 29.5312 13.7216L32.4844 16.6747H25.375V13.1747ZM28.875 28.9247C27.3984 28.9247 26.25 27.7763 26.25 26.2997C26.25 24.8779 27.3984 23.6747 28.875 23.6747C30.2969 23.6747 31.5 24.8779 31.5 26.2997C31.5 27.7763 30.2969 28.9247 28.875 28.9247ZM33.25 23.6747H32.3203C31.5547 22.6357 30.2969 21.9247 28.875 21.9247C27.3984 21.9247 26.1953 22.6357 25.375 23.6747V18.4247H33.25V23.6747ZM5.6875 18.4247H6.5625C6.78125 18.4247 7 18.2607 7 17.9872V10.1122C7 9.89349 6.78125 9.67474 6.5625 9.67474H5.6875C5.41406 9.67474 5.25 9.89349 5.25 10.1122V17.9872C5.25 18.2607 5.41406 18.4247 5.6875 18.4247ZM10.9375 18.4247H11.8125C12.0312 18.4247 12.25 18.2607 12.25 17.9872V10.1122C12.25 9.89349 12.0312 9.67474 11.8125 9.67474H10.9375C10.6641 9.67474 10.5 9.89349 10.5 10.1122V17.9872C10.5 18.2607 10.6641 18.4247 10.9375 18.4247ZM16.1875 18.4247H17.0625C17.2812 18.4247 17.5 18.2607 17.5 17.9872V10.1122C17.5 9.89349 17.2812 9.67474 17.0625 9.67474H16.1875C15.9141 9.67474 15.75 9.89349 15.75 10.1122V17.9872C15.75 18.2607 15.9141 18.4247 16.1875 18.4247Z" fill="#5C8EE6"/>
</svg>
