<svg width="36" height="37" viewBox="0 0 36 37" fill="none" xmlns="http://www.w3.org/2000/svg">
<path d="M11.625 14.2997C10.6406 14.2997 9.875 15.1201 9.875 16.0497C9.875 17.0341 10.6406 17.7997 11.625 17.7997C12.5547 17.7997 13.375 17.0341 13.375 16.0497C13.375 15.1201 12.5547 14.2997 11.625 14.2997ZM17.75 6.42474C9.05469 6.42474 2 13.4794 2 22.1747C2 25.0732 2.76562 27.8076 4.13281 30.1044C4.40625 30.6513 5.00781 30.9794 5.60938 30.9794H29.8359C30.4375 30.9794 31.0391 30.6513 31.3672 30.1044C32.6797 27.8076 33.5 25.0732 33.5 22.1747C33.5 13.4794 26.4453 6.42474 17.75 6.42474ZM17.75 28.2997C16.4922 28.2997 15.5625 27.3701 15.5625 26.1122C15.5625 24.9091 16.4922 23.9247 17.75 23.9247C18.9531 23.9247 19.9375 24.9091 19.9375 26.1122C19.9375 27.3701 18.9531 28.2997 17.75 28.2997ZM29.3438 28.2997H22.0156C22.3438 27.6435 22.5625 26.9326 22.5625 26.1122C22.5625 25.7841 22.5078 25.456 22.3984 25.1279L27.4297 22.9951C28.0859 22.6669 28.4141 21.9013 28.1406 21.2451C27.8125 20.5888 27.0469 20.2607 26.3906 20.5341L21.1953 22.7763C20.3203 21.9013 19.0625 21.2997 17.75 21.2997C15.0703 21.2997 12.9375 23.4872 12.9375 26.1122C12.9375 26.9326 13.1016 27.6435 13.4844 28.2997H6.10156C5.11719 26.4404 4.625 24.3622 4.625 22.1747C4.625 14.956 10.4766 9.04974 17.75 9.04974C24.9688 9.04974 30.875 14.956 30.875 22.1747C30.875 24.3622 30.3281 26.4404 29.3438 28.2997ZM9 20.4247C8.01562 20.4247 7.25 21.2451 7.25 22.1747C7.25 23.1591 8.01562 23.9247 9 23.9247C9.92969 23.9247 10.75 23.1591 10.75 22.1747C10.75 21.2451 9.92969 20.4247 9 20.4247ZM17.75 11.6747C16.7656 11.6747 16 12.4951 16 13.4247C16 14.4091 16.7656 15.1747 17.75 15.1747C18.6797 15.1747 19.5 14.4091 19.5 13.4247C19.5 12.4951 18.6797 11.6747 17.75 11.6747ZM23.875 14.2997C22.8906 14.2997 22.125 15.1201 22.125 16.0497C22.125 17.0341 22.8906 17.7997 23.875 17.7997C24.8047 17.7997 25.625 17.0341 25.625 16.0497C25.625 15.1201 24.8047 14.2997 23.875 14.2997Z" fill="#5C8EE6"/>
</svg>
