<svg width="36" height="37" viewBox="0 0 36 37" fill="none" xmlns="http://www.w3.org/2000/svg">
<path d="M20.125 6.17474H20.3438C20.6719 6.17474 21 5.90131 21 5.51849V5.08099C21 4.75287 20.6719 4.42474 20.3438 4.42474H0.65625C0.273438 4.42474 0 4.75287 0 5.08099V5.51849C0 5.90131 0.273438 6.17474 0.65625 6.17474H0.875C0.875 11.206 3.28125 16.7841 7.92969 18.4247C3.22656 20.1201 0.875 25.6982 0.875 30.6747H0.65625C0.273438 30.6747 0 31.0029 0 31.331V31.7685C0 32.1513 0.273438 32.4247 0.65625 32.4247H20.3438C20.6719 32.4247 21 32.1513 21 31.7685V31.331C21 31.0029 20.6719 30.6747 20.3438 30.6747H20.125C20.125 25.6982 17.6641 20.1201 13.0156 18.4247C17.7188 16.7841 20.125 11.206 20.125 6.17474ZM2.625 6.17474H18.375C18.375 12.2451 14.8203 17.1122 10.5 17.1122C6.125 17.1122 2.625 12.2451 2.625 6.17474ZM18.375 30.6747H2.625C2.625 24.6591 6.125 19.7372 10.5 19.7372C14.8203 19.7372 18.375 24.6591 18.375 30.6747ZM14.7109 12.4638C15.0391 12.081 14.7109 11.4247 14.1641 11.4247H6.78125C6.23438 11.4247 5.90625 12.081 6.23438 12.4638C6.34375 12.6279 6.45312 12.7919 6.61719 12.956C6.72656 13.1201 6.89062 13.1747 7.10938 13.1747H13.8359C14.0547 13.1747 14.2188 13.1201 14.3281 12.956C14.4922 12.7919 14.6016 12.6279 14.7109 12.4638ZM5.35938 27.1747C5.03125 27.1747 4.8125 27.3935 4.70312 27.6669C4.70312 27.831 4.64844 27.9951 4.59375 28.1591C4.53906 28.5419 4.8125 28.9247 5.25 28.9247H15.6953C16.1328 28.9247 16.4062 28.5419 16.3516 28.1591C16.2969 27.9951 16.2422 27.831 16.2422 27.6669C16.1328 27.3935 15.9141 27.1747 15.5859 27.1747H5.35938Z" fill="#5C8EE6"/>
</svg>
